<?xml version="1.0" encoding="UTF-8"?>
<svg id="Layer_1" data-name="Layer 1" xmlns="http://www.w3.org/2000/svg" viewBox="0 0 2102.56 1864.65">
  <defs>
    <style>
      .cls-1 {
        fill: #1973f0;
        stroke-width: 0px;
      }
    </style>
  </defs>
  <path class="cls-1" d="m1300.54,417.41c-21.05-2.49-42.04-2.11-62.98.71,22.19-36.11,35.22-78.47,35.22-123.96,0-131.11-106.28-237.39-237.39-237.39s-237.39,106.28-237.39,237.39c0,45.7,13.14,88.22,35.5,124.44-25.95-3.71-52.38-4.37-78.98-1.61-112.59,11.78-204.8,81.01-246.67,185.2-88.98,221.55,294.13,573.03,371.83,641.25l92.74-105.61c-163.68-143.85-370.84-391.84-334.13-483.26,22.1-54.96,71.02-91.53,130.87-97.79,75.55-8.18,152.09,33.68,203.98,111.08,13.07,19.71,35,32.26,58.64,33.52,23.58,1.1,46.86-8.87,62.13-27.29,47.74-57.84,119.78-125.16,189.89-117.14,74.32,8.43,134.14,97.27,150.94,130.79l126.01-62.24c-3.76-7.71-94.52-188.71-260.2-208.09Z"/>
  <path class="cls-1" d="m276.96,1227.67c9,19.19,20.41,36.82,33.87,53.1-42.39.23-85.23,11.54-123.86,35.57-111.33,69.24-145.44,215.63-76.2,326.96,69.24,111.33,215.63,145.44,326.96,76.2,38.8-24.13,67.98-57.75,86.92-95.87,10.56,23.99,23.95,46.79,40.35,67.91,69.46,89.38,176.96,131.12,287.54,111.64,235.12-41.46,331.24-552.41,348.13-654.42l-138.66-22.97c-35.71,214.96-136.87,521.85-233.88,538.96-58.34,10.26-115.23-11.97-152.16-59.48-46.85-59.83-51.72-146.94-13.41-231.87,9.84-21.51,8.9-46.76-2.51-67.5-11.52-20.6-32.28-35.11-55.98-38.34-74.33-9.99-169.54-35.61-199.76-99.38-32.09-67.56,11.75-165.27,31.34-197.24l-119.4-74.13c-4.56,7.27-110.32,179.93-39.28,330.86Z"/>
  <path class="cls-1" d="m1556.15,1665.45c12.16-17.36,21.76-36.04,29.18-55.82,21.31,36.64,52.46,68.16,92.53,89.69,115.49,62.05,259.42,18.72,321.47-96.78,62.04-115.49,18.72-259.42-96.78-321.47-40.25-21.63-83.94-30.18-126.43-27.62,15.55-21.1,28.64-44.07,38.79-68.81,42.91-104.75,25.56-218.75-46.41-304.94-153.06-183.23-644-12.08-740.86,24.08l49.15,131.68c204.19-76.11,520.68-141.24,583.84-65.64,37.96,45.48,47.02,105.88,24.21,161.56-28.55,70.43-101.65,118.04-194.38,127.12-23.55,2.18-44.98,15.57-57.28,35.79-12.13,20.25-14.37,45.48-5.36,67.64,28.36,69.43,53.57,164.75,13.33,222.72-42.59,61.48-149.16,72.13-186.65,71.07l-4.81,140.46c8.58.34,210.97,6.04,306.46-130.74Z"/>
</svg>